<svg width="93" height="24" viewBox="0 0 93 24" fill="none" xmlns="http://www.w3.org/2000/svg">
<g clip-path="url(#clip0_5_8243)">
<path d="M32.0806 14.2251V5.84091H27.6521V7.09974C26.6266 6.42816 24.8257 5.62107 23.1649 5.62107C21.5769 5.59609 20.0073 5.96276 18.5948 6.68866C17.2552 7.38988 16.1478 8.46481 15.4071 9.78304C14.6321 11.1322 14.2446 12.7178 14.2446 14.5398C14.2446 16.3618 14.6321 17.9428 15.4071 19.283C16.1539 20.5965 17.2597 21.6699 18.5948 22.3774C20.0043 23.113 21.5751 23.4852 23.1649 23.46C24.8212 23.46 26.5001 22.7342 27.6521 21.9663V23.2402H32.0806V14.8605C32.0806 14.7566 32.0806 14.6527 32.0806 14.5458C32.0806 14.4389 32.0821 14.3305 32.0806 14.2251ZM26.3059 18.3238C25.8939 18.7372 25.4044 19.0652 24.8654 19.289C24.3264 19.5128 23.7485 19.628 23.1649 19.628C22.5812 19.628 22.0033 19.5128 21.4643 19.289C20.9253 19.0652 20.4358 18.7372 20.0238 18.3238C19.1655 17.4565 18.7364 16.1951 18.7364 14.5398C18.7364 12.8844 19.1655 11.6231 20.0238 10.7558C20.4361 10.3429 20.9257 10.0154 21.4647 9.79191C22.0037 9.56845 22.5814 9.45342 23.1649 9.45342C23.7483 9.45342 24.326 9.56845 24.865 9.79191C25.404 10.0154 25.8936 10.3429 26.3059 10.7558C27.1642 11.6241 27.5933 12.8854 27.5933 14.5398C27.5933 16.1941 27.1642 17.4555 26.3059 18.3238Z" fill="white"/>
<path d="M39.739 0H35.3105V23.2402H39.739V0Z" fill="white"/>
<path d="M47.2453 5.84091H42.8168V23.2402H47.2453V5.84091Z" fill="white"/>
<path d="M60.984 14.085C59.9354 13.6966 58.8593 13.3871 57.7646 13.159C56.822 12.9291 56.0997 12.7283 55.5978 12.5567C55.1373 12.4125 54.7103 12.1774 54.342 11.8655C54.1767 11.7216 54.0458 11.5425 53.9587 11.3413C53.8717 11.1402 53.8308 10.9221 53.8391 10.7031C53.8272 10.4305 53.8776 10.1588 53.9864 9.90858C54.0952 9.65837 54.2595 9.43623 54.467 9.25902C54.8856 8.90266 55.4718 8.72447 56.2257 8.72447C57.1683 8.72447 57.9328 8.97544 58.519 9.47736C59.1154 9.99784 59.5147 10.7076 59.6499 11.4876H63.7953C63.4801 9.70775 62.6845 8.28378 61.4086 7.21569C60.1327 6.14759 58.4367 5.61605 56.3206 5.62107C54.2888 5.62107 52.6972 6.09238 51.5458 7.03499C50.9917 7.47065 50.547 8.02968 50.2472 8.66754C49.9473 9.30541 49.8006 10.0045 49.8187 10.7091C49.8187 11.8826 50.1068 12.8036 50.683 13.4722C51.2371 14.1285 51.9506 14.6314 52.7549 14.9328C53.7878 15.3016 54.8442 15.6009 55.917 15.8287C56.8587 16.0586 57.5859 16.2594 58.0989 16.431C58.5749 16.577 59.0139 16.8235 59.3864 17.1538C59.5569 17.3076 59.6916 17.497 59.7811 17.7085C59.8706 17.92 59.9127 18.1485 59.9043 18.378C59.9131 18.6456 59.8638 18.9118 59.7598 19.1585C59.6558 19.4052 59.4997 19.6264 59.302 19.807C58.9005 20.1744 58.3248 20.3576 57.5749 20.3566C56.5279 20.3566 55.6801 20.1107 55.0316 19.6188C54.7122 19.3789 54.4465 19.0747 54.2518 18.7259C54.057 18.3771 53.9374 17.9913 53.9008 17.5935H49.662C49.9552 19.4767 50.7823 20.9263 52.1436 21.9422C53.5048 22.9581 55.3157 23.466 57.5764 23.466C59.544 23.466 61.109 23.0053 62.2714 22.0837C62.8285 21.6634 63.2773 21.1163 63.5806 20.4878C63.8838 19.8593 64.0328 19.1675 64.0151 18.4699C64.0151 17.2753 63.714 16.3276 63.1116 15.627C62.5422 14.9434 61.8108 14.4134 60.984 14.085Z" fill="white"/>
<path d="M70.7986 5.84091H66.3701V23.2402H70.7986V5.84091Z" fill="white"/>
<path d="M84.5388 14.085C83.4902 13.6968 82.4141 13.3873 81.3194 13.159C80.3768 12.9291 79.6546 12.7283 79.1526 12.5567C78.6921 12.4125 78.2651 12.1774 77.8968 11.8655C77.7315 11.7216 77.6006 11.5425 77.5135 11.3413C77.4265 11.1402 77.3856 10.9221 77.3939 10.7031C77.382 10.4305 77.4324 10.1588 77.5412 9.90858C77.65 9.65837 77.8143 9.43623 78.0218 9.25902C78.4404 8.90266 79.0266 8.72447 79.7805 8.72447C80.7232 8.72447 81.4876 8.97544 82.0738 9.47736C82.6704 9.99752 83.0692 10.7075 83.2032 11.4876H87.3501C87.0359 9.70775 86.2398 8.28378 84.9619 7.21569C83.684 6.14759 81.987 5.61605 79.8709 5.62107C77.8411 5.62107 76.25 6.09238 75.0976 7.03499C74.543 7.47017 74.0979 8.02911 73.798 8.66709C73.4981 9.30507 73.3517 10.0044 73.3705 10.7091C73.3705 11.8826 73.6586 12.8036 74.2348 13.4722C74.7889 14.1285 75.5024 14.6314 76.3067 14.9328C77.3396 15.3017 78.396 15.601 79.4688 15.8287C80.4115 16.0586 81.1393 16.2594 81.6522 16.431C82.128 16.5773 82.567 16.8238 82.9397 17.1538C83.1102 17.3076 83.2449 17.497 83.3344 17.7085C83.4239 17.92 83.466 18.1485 83.4576 18.378C83.4664 18.6456 83.4171 18.9118 83.3131 19.1585C83.2091 19.4052 83.053 19.6264 82.8553 19.807C82.4538 20.1744 81.8781 20.3576 81.1282 20.3566C80.0802 20.3566 79.2319 20.1107 78.5834 19.6188C78.265 19.3773 78.0006 19.0718 77.8074 18.722C77.6141 18.3721 77.4964 17.9856 77.4616 17.5875H73.2169C73.509 19.4707 74.3357 20.9203 75.6969 21.9362C77.0581 22.9521 78.8695 23.46 81.1312 23.46C83.0998 23.46 84.6648 22.9992 85.8262 22.0777C86.3833 21.6574 86.8321 21.1103 87.1354 20.4818C87.4386 19.8532 87.5876 19.1615 87.5699 18.4638C87.5699 17.2693 87.2688 16.3216 86.6665 15.6209C86.0963 14.9396 85.3649 14.4117 84.5388 14.085Z" fill="white"/>
<path d="M17.6116 0.231903H6.55164V23.2402H10.9786V4.66039H17.6116V0.231903Z" fill="white"/>
<path d="M2.44536 4.63647e-07C1.96135 5.55294e-07 1.48821 0.143547 1.08579 0.412481C0.683366 0.681415 0.369744 1.06365 0.184589 1.51085C-0.000565684 1.95805 -0.048934 2.45012 0.0456018 2.92481C0.140138 3.3995 0.373329 3.83549 0.715683 4.17763C1.05804 4.51977 1.49417 4.7527 1.96892 4.84694C2.44367 4.94118 2.9357 4.89251 3.38279 4.70708C3.82987 4.52165 4.21192 4.2078 4.48061 3.80521C4.74929 3.40262 4.89255 2.92939 4.89225 2.44538C4.89225 2.12412 4.82895 1.80601 4.70596 1.50923C4.58297 1.21244 4.40271 0.942798 4.17548 0.715704C3.94825 0.488609 3.67849 0.308515 3.38163 0.185711C3.08477 0.0629079 2.76662 -0.000197356 2.44536 4.63647e-07Z" fill="white"/>
</g>
<defs>
<clipPath id="clip0_5_8243">
<rect width="92.8718" height="23.46" fill="white"/>
</clipPath>
</defs>
</svg>
