<svg width="97" height="30" viewBox="0 0 97 30" fill="none" xmlns="http://www.w3.org/2000/svg">
<path d="M96.7235 14.837C96.7235 10.4051 95.6713 6.68744 93.6794 4.09875C91.618 1.41898 88.5907 0 84.9306 0H74.1085V29.9616H84.9306C88.5907 29.9616 91.618 28.545 93.6794 25.8629C95.6713 23.2718 96.7235 19.559 96.7235 15.1246M89.1804 14.9832V15.0335C89.1804 19.7555 87.3635 22.3274 84.1852 22.3274H82.0926L82.0759 15.012V14.9545L82.0926 7.64142H84.1852C87.3635 7.64142 89.1804 10.2109 89.1804 14.9353V14.9904V14.9832Z" fill="white"/>
<path d="M41.4691 14.2213L29.7289 0.0266331H26.716V29.9835H34.4509V15.9207L46.1935 30.0003H49.2064V0.0146484H41.4691V14.2213Z" fill="white"/>
<path d="M68.5162 6.18182V0.00732422H54.8202V6.18182H57.8331V23.828H54.8202V30.0001H68.5162V23.828H65.5057L65.5033 6.18182H65.5057H68.5162Z" fill="white"/>
<path d="M13.4012 19.2956C13.4182 19.695 13.355 20.0937 13.2154 20.4683C13.0759 20.8429 12.8628 21.1858 12.5887 21.4768C12.3409 21.7543 12.0356 21.9746 11.6942 22.1224C11.3527 22.2701 10.9832 22.3418 10.6112 22.3325C9.65244 22.3325 9.01006 22.0281 8.5091 21.4384C7.99734 20.8432 7.7226 20.0804 7.73729 19.2956V0.0266331H0V19.4633C0 25.7601 4.24736 29.9883 10.5681 29.9883C16.8888 29.9883 21.0954 25.7601 21.0954 19.4633V7.69921L13.4012 0.0146484V19.2956Z" fill="white"/>
<path d="M21.0812 6.18435V0.0146484H14.9043L21.0812 6.18435Z" fill="#F6BE00"/>
</svg>
