<svg width="124" height="34" viewBox="0 0 124 34" fill="none" xmlns="http://www.w3.org/2000/svg">
<g id="UNID">
<path id="Vector" d="M124 16.8153C124 11.7924 122.651 7.57909 120.098 4.64525C117.455 1.60818 113.574 0 108.882 0H95.0078V33.9565H108.882C113.574 33.9565 117.455 32.3511 120.098 29.3113C122.651 26.3747 124 22.1668 124 17.1413M114.33 16.981V17.038C114.33 22.3896 112.001 25.3044 107.926 25.3044H105.244L105.222 17.0136V16.9484L105.244 8.66027H107.926C112.001 8.66027 114.33 11.5724 114.33 16.9266V16.9891V16.981Z" fill="#1E1A34"/>
<path id="Vector_2" d="M53.1636 16.1174L38.1126 0.0301842H34.25V33.9813H44.1662V18.0434L59.2202 34.0003H63.0828V0.0166016H53.1636V16.1174Z" fill="#1E1A34"/>
<path id="Vector_3" d="M87.8377 7.00582V0.00805664H70.2793V7.00582H74.1419V27.0049H70.2793V33.9999H87.8377V27.0049H83.9782L83.9751 7.00582H83.9782H87.8377Z" fill="#1E1A34"/>
<path id="Vector_4" d="M17.1805 21.8683C17.2021 22.3209 17.1212 22.7729 16.9422 23.1974C16.7633 23.6219 16.4901 24.0106 16.1387 24.3403C15.8211 24.6549 15.4297 24.9045 14.992 25.072C14.5542 25.2395 14.0805 25.3207 13.6036 25.3101C12.3745 25.3101 11.5509 24.9651 10.9087 24.2969C10.2526 23.6223 9.90041 22.7578 9.91925 21.8683V0.0301842H0V22.0585C0 29.1948 5.44514 33.9867 13.5483 33.9867C21.6515 33.9867 27.0444 29.1948 27.0444 22.0585V8.72577L17.1805 0.0166016V21.8683Z" fill="#1E1A34"/>
<path id="Vector_5" d="M27.0262 7.00893V0.0166016H19.1074L27.0262 7.00893Z" fill="#1E1A34"/>
</g>
</svg>
